<mxfile host="app.diagrams.net" modified="2023-12-15T18:16:22.322Z" agent="Mozilla/5.0 (Macintosh; Intel Mac OS X 10_15_7) AppleWebKit/537.36 (KHTML, like Gecko) Chrome/120.0.0.0 Safari/537.36" etag="fo-YRPatcKzxoELuLjAT" version="22.1.11" type="device">
  <diagram name="Page-1" id="d5PV9uF3gkmWzc4igQVb">
    <mxGraphModel dx="2173" dy="1215" grid="1" gridSize="10" guides="1" tooltips="1" connect="1" arrows="1" fold="1" page="1" pageScale="1" pageWidth="1100" pageHeight="850" math="0" shadow="0">
      <root>
        <mxCell id="0" />
        <mxCell id="1" parent="0" />
        <mxCell id="qDzePuDi-D4tq7ZBTKrt-31" value="" style="html=1;verticalLabelPosition=bottom;align=center;labelBackgroundColor=#ffffff;verticalAlign=top;strokeWidth=2;strokeColor=#0080F0;shadow=0;dashed=0;shape=mxgraph.ios7.icons.cloud;fillColor=none;" parent="1" vertex="1">
          <mxGeometry x="60" y="120" width="700" height="352.5" as="geometry" />
        </mxCell>
        <mxCell id="qDzePuDi-D4tq7ZBTKrt-6" style="edgeStyle=orthogonalEdgeStyle;rounded=0;orthogonalLoop=1;jettySize=auto;html=1;exitX=1;exitY=0.5;exitDx=0;exitDy=0;exitPerimeter=0;strokeColor=#808080;" parent="1" source="qDzePuDi-D4tq7ZBTKrt-1" target="qDzePuDi-D4tq7ZBTKrt-3" edge="1">
          <mxGeometry relative="1" as="geometry" />
        </mxCell>
        <mxCell id="qDzePuDi-D4tq7ZBTKrt-1" value="Hornbill Application&amp;nbsp; Database" style="shape=cylinder3;whiteSpace=wrap;html=1;boundedLbl=1;backgroundOutline=1;size=15;fillColor=#ffe6cc;strokeColor=#d79b00;" parent="1" vertex="1">
          <mxGeometry x="110" y="312.5" width="90" height="130" as="geometry" />
        </mxCell>
        <mxCell id="qDzePuDi-D4tq7ZBTKrt-2" value="Hornbill Direct Access&lt;br&gt;Staging Database" style="shape=cylinder3;whiteSpace=wrap;html=1;boundedLbl=1;backgroundOutline=1;size=15;fillColor=#dae8fc;strokeColor=#6c8ebf;" parent="1" vertex="1">
          <mxGeometry x="620" y="312.5" width="90" height="130" as="geometry" />
        </mxCell>
        <mxCell id="qDzePuDi-D4tq7ZBTKrt-7" style="edgeStyle=orthogonalEdgeStyle;rounded=0;orthogonalLoop=1;jettySize=auto;html=1;exitX=1;exitY=0.5;exitDx=0;exitDy=0;entryX=0;entryY=0.5;entryDx=0;entryDy=0;strokeColor=#808080;" parent="1" source="qDzePuDi-D4tq7ZBTKrt-3" target="qDzePuDi-D4tq7ZBTKrt-4" edge="1">
          <mxGeometry relative="1" as="geometry" />
        </mxCell>
        <mxCell id="qDzePuDi-D4tq7ZBTKrt-3" value="Extract" style="shape=process;whiteSpace=wrap;html=1;backgroundOutline=1;fillColor=#d5e8d4;strokeColor=#82b366;" parent="1" vertex="1">
          <mxGeometry x="240" y="355" width="90" height="45" as="geometry" />
        </mxCell>
        <mxCell id="qDzePuDi-D4tq7ZBTKrt-8" style="edgeStyle=orthogonalEdgeStyle;rounded=0;orthogonalLoop=1;jettySize=auto;html=1;exitX=1;exitY=0.5;exitDx=0;exitDy=0;entryX=0;entryY=0.5;entryDx=0;entryDy=0;strokeColor=#808080;" parent="1" source="qDzePuDi-D4tq7ZBTKrt-4" target="qDzePuDi-D4tq7ZBTKrt-5" edge="1">
          <mxGeometry relative="1" as="geometry" />
        </mxCell>
        <mxCell id="qDzePuDi-D4tq7ZBTKrt-4" value="Transform" style="shape=process;whiteSpace=wrap;html=1;backgroundOutline=1;fillColor=#d5e8d4;strokeColor=#82b366;" parent="1" vertex="1">
          <mxGeometry x="370" y="355" width="90" height="45" as="geometry" />
        </mxCell>
        <mxCell id="qDzePuDi-D4tq7ZBTKrt-5" value="Load" style="shape=process;whiteSpace=wrap;html=1;backgroundOutline=1;fillColor=#d5e8d4;strokeColor=#82b366;" parent="1" vertex="1">
          <mxGeometry x="495" y="355" width="90" height="45" as="geometry" />
        </mxCell>
        <mxCell id="qDzePuDi-D4tq7ZBTKrt-9" style="edgeStyle=orthogonalEdgeStyle;rounded=0;orthogonalLoop=1;jettySize=auto;html=1;exitX=1;exitY=0.5;exitDx=0;exitDy=0;entryX=0;entryY=0.5;entryDx=0;entryDy=0;entryPerimeter=0;strokeColor=#808080;" parent="1" source="qDzePuDi-D4tq7ZBTKrt-5" target="qDzePuDi-D4tq7ZBTKrt-2" edge="1">
          <mxGeometry relative="1" as="geometry" />
        </mxCell>
        <mxCell id="qDzePuDi-D4tq7ZBTKrt-12" style="edgeStyle=orthogonalEdgeStyle;rounded=0;orthogonalLoop=1;jettySize=auto;html=1;exitX=1;exitY=0.5;exitDx=0;exitDy=0;exitPerimeter=0;entryX=0;entryY=0.5;entryDx=0;entryDy=0;entryPerimeter=0;strokeColor=#808080;" parent="1" source="qDzePuDi-D4tq7ZBTKrt-14" edge="1">
          <mxGeometry relative="1" as="geometry">
            <mxPoint x="900" y="377.5" as="targetPoint" />
          </mxGeometry>
        </mxCell>
        <mxCell id="qDzePuDi-D4tq7ZBTKrt-13" value="Secure Connection / Read-Only Access" style="text;strokeColor=none;align=center;fillColor=none;html=1;verticalAlign=middle;whiteSpace=wrap;rounded=0;fontColor=#878787;" parent="1" vertex="1">
          <mxGeometry x="770" y="442.5" width="100" height="30" as="geometry" />
        </mxCell>
        <mxCell id="qDzePuDi-D4tq7ZBTKrt-15" value="" style="edgeStyle=orthogonalEdgeStyle;rounded=0;orthogonalLoop=1;jettySize=auto;html=1;exitX=1;exitY=0.5;exitDx=0;exitDy=0;exitPerimeter=0;entryX=0;entryY=0.5;entryDx=0;entryDy=0;entryPerimeter=0;strokeColor=#808080;" parent="1" source="qDzePuDi-D4tq7ZBTKrt-2" target="qDzePuDi-D4tq7ZBTKrt-14" edge="1">
          <mxGeometry relative="1" as="geometry">
            <mxPoint x="710" y="378" as="sourcePoint" />
            <mxPoint x="900" y="378" as="targetPoint" />
          </mxGeometry>
        </mxCell>
        <mxCell id="qDzePuDi-D4tq7ZBTKrt-14" value="" style="sketch=0;outlineConnect=0;fontColor=#232F3E;gradientColor=none;fillColor=#8C4FFF;strokeColor=none;dashed=0;verticalLabelPosition=bottom;verticalAlign=top;align=center;html=1;fontSize=12;fontStyle=0;aspect=fixed;pointerEvents=1;shape=mxgraph.aws4.vpn_connection;" parent="1" vertex="1">
          <mxGeometry x="785" y="338.5" width="70" height="78" as="geometry" />
        </mxCell>
        <mxCell id="qDzePuDi-D4tq7ZBTKrt-22" value="" style="endArrow=classic;html=1;rounded=0;edgeStyle=orthogonalEdgeStyle;strokeWidth=7;fillColor=#60a917;strokeColor=#2D7600;" parent="1" edge="1">
          <mxGeometry relative="1" as="geometry">
            <mxPoint x="220" y="424" as="sourcePoint" />
            <mxPoint x="600" y="424" as="targetPoint" />
          </mxGeometry>
        </mxCell>
        <mxCell id="qDzePuDi-D4tq7ZBTKrt-23" value="Label" style="edgeLabel;resizable=0;html=1;align=center;verticalAlign=middle;" parent="qDzePuDi-D4tq7ZBTKrt-22" connectable="0" vertex="1">
          <mxGeometry relative="1" as="geometry" />
        </mxCell>
        <mxCell id="qDzePuDi-D4tq7ZBTKrt-26" value="&lt;font style=&quot;font-size: 17px;&quot;&gt;&amp;nbsp;Reporting Data Replication&amp;nbsp;&lt;/font&gt;" style="edgeLabel;html=1;align=center;verticalAlign=middle;resizable=0;points=[];" parent="qDzePuDi-D4tq7ZBTKrt-22" vertex="1" connectable="0">
          <mxGeometry x="0.075" y="-1" relative="1" as="geometry">
            <mxPoint as="offset" />
          </mxGeometry>
        </mxCell>
        <mxCell id="qDzePuDi-D4tq7ZBTKrt-27" value="" style="image;aspect=fixed;html=1;points=[];align=center;fontSize=12;image=img/lib/azure2/databases/SQL_Data_Warehouses.svg;" parent="1" vertex="1">
          <mxGeometry x="910" y="322.5" width="118.15" height="120" as="geometry" />
        </mxCell>
        <mxCell id="qDzePuDi-D4tq7ZBTKrt-28" value="Customers Data Warehouse" style="text;strokeColor=none;align=center;fillColor=none;html=1;verticalAlign=middle;whiteSpace=wrap;rounded=0;fontColor=#878787;" parent="1" vertex="1">
          <mxGeometry x="930" y="460" width="60" height="12.5" as="geometry" />
        </mxCell>
        <mxCell id="qDzePuDi-D4tq7ZBTKrt-32" value="Hornbill Cloud" style="text;strokeColor=none;align=center;fillColor=none;html=1;verticalAlign=middle;whiteSpace=wrap;rounded=0;fontSize=28;fontColor=#0066CC;" parent="1" vertex="1">
          <mxGeometry x="250" y="232.5" width="350" height="90" as="geometry" />
        </mxCell>
      </root>
    </mxGraphModel>
  </diagram>
</mxfile>
